<svg xmlns="http://www.w3.org/2000/svg" viewBox="0 0 800 450">
  <defs>
    <linearGradient id="bg1" x1="0" y1="0" x2="1" y2="1">
      <stop offset="0%" stop-color="#0b5c61"/>
      <stop offset="100%" stop-color="#1a8187"/>
    </linearGradient>
    <linearGradient id="brain" x1="0" y1="0" x2="0" y2="1">
      <stop offset="0%" stop-color="#63c6b8"/>
      <stop offset="100%" stop-color="#1a8187"/>
    </linearGradient>
  </defs>
  <rect width="800" height="450" fill="url(#bg1)"/>
  <g transform="translate(400,225)">
    <circle r="55" fill="url(#brain)" opacity="0.95"/>
    <circle r="30" fill="none" stroke="#fdfaf3" stroke-width="1.5" opacity="0.4"/>
    <circle r="18" fill="none" stroke="#fdfaf3" stroke-width="1" opacity="0.3"/>
    <path d="M-12,-8 Q-6,-18 0,-12 Q6,-18 12,-8" fill="none" stroke="#fdfaf3" stroke-width="2" stroke-linecap="round"/>
    <path d="M-10,5 Q0,15 10,5" fill="none" stroke="#fdfaf3" stroke-width="2" stroke-linecap="round"/>
    <circle cx="0" cy="-3" r="3" fill="#fdfaf3" opacity="0.8"/>
  </g>
  <g transform="translate(150,120)">
    <rect x="-40" y="-28" width="80" height="56" rx="10" fill="#0b5c61" opacity="0.85"/>
    <path d="M-15,-5 L-5,-5 L-5,10 L-18,10 Z" fill="#63c6b8"/>
    <path d="M-18,-8 Q-18,-14 -12,-14 L-8,-14 Q-2,-14 -2,-8 L-2,-3 Q-2,1 -8,1 L-18,1 Z" fill="none" stroke="#63c6b8" stroke-width="2" stroke-linecap="round"/>
    <circle cx="15" cy="-2" r="10" fill="none" stroke="#63c6b8" stroke-width="2"/>
    <path d="M22,-2 L28,4 M22,4 L28,-2" fill="none" stroke="#63c6b8" stroke-width="2" stroke-linecap="round"/>
    <line x1="120" y1="105" x2="55" y2="25" stroke="#63c6b8" stroke-width="1.5" stroke-dasharray="4,4" opacity="0.5"/>
  </g>
  <g transform="translate(650,120)">
    <rect x="-40" y="-28" width="80" height="56" rx="10" fill="#0b5c61" opacity="0.85"/>
    <rect x="-18" y="-14" width="36" height="28" rx="4" fill="none" stroke="#63c6b8" stroke-width="2"/>
    <rect x="-12" y="-8" width="12" height="3" rx="1" fill="#63c6b8"/>
    <rect x="-12" y="-2" width="20" height="3" rx="1" fill="#63c6b8" opacity="0.6"/>
    <rect x="-12" y="4" width="16" height="3" rx="1" fill="#63c6b8" opacity="0.4"/>
    <line x1="-120" y1="105" x2="-55" y2="25" stroke="#63c6b8" stroke-width="1.5" stroke-dasharray="4,4" opacity="0.5"/>
  </g>
  <g transform="translate(150,330)">
    <rect x="-40" y="-28" width="80" height="56" rx="10" fill="#0b5c61" opacity="0.85"/>
    <rect x="-14" y="-16" width="28" height="22" rx="3" fill="none" stroke="#63c6b8" stroke-width="2"/>
    <polyline points="-14,-4 -4,4 14,-8" fill="none" stroke="#63c6b8" stroke-width="2" stroke-linecap="round" stroke-linejoin="round"/>
    <circle cx="12" cy="8" r="8" fill="#63c6b8" opacity="0.3"/>
    <line x1="120" y1="-105" x2="55" y2="-25" stroke="#63c6b8" stroke-width="1.5" stroke-dasharray="4,4" opacity="0.5"/>
  </g>
  <g transform="translate(650,330)">
    <rect x="-40" y="-28" width="80" height="56" rx="10" fill="#0b5c61" opacity="0.85"/>
    <circle cx="-8" cy="0" r="12" fill="none" stroke="#63c6b8" stroke-width="2"/>
    <circle cx="10" cy="-6" r="8" fill="none" stroke="#63c6b8" stroke-width="1.5"/>
    <circle cx="10" cy="10" r="6" fill="none" stroke="#63c6b8" stroke-width="1.5"/>
    <line x1="-120" y1="-105" x2="-55" y2="-25" stroke="#63c6b8" stroke-width="1.5" stroke-dasharray="4,4" opacity="0.5"/>
  </g>
  <g transform="translate(400,80)">
    <rect x="-35" y="-22" width="70" height="44" rx="8" fill="#0b5c61" opacity="0.85"/>
    <circle cx="0" cy="0" r="12" fill="none" stroke="#63c6b8" stroke-width="2"/>
    <circle cx="0" cy="0" r="4" fill="#63c6b8"/>
    <line x1="0" y1="34" x2="0" y2="141" stroke="#63c6b8" stroke-width="1.5" stroke-dasharray="4,4" opacity="0.5"/>
  </g>
  <g transform="translate(400,370)">
    <rect x="-35" y="-22" width="70" height="44" rx="8" fill="#0b5c61" opacity="0.85"/>
    <path d="M-12,-8 L0,8 L12,-8" fill="none" stroke="#63c6b8" stroke-width="2" stroke-linecap="round" stroke-linejoin="round"/>
    <line x1="0" y1="-141" x2="0" y2="-34" stroke="#63c6b8" stroke-width="1.5" stroke-dasharray="4,4" opacity="0.5"/>
  </g>
  <circle cx="400" cy="225" r="120" fill="none" stroke="#63c6b8" stroke-width="0.8" opacity="0.2"/>
  <circle cx="400" cy="225" r="170" fill="none" stroke="#63c6b8" stroke-width="0.5" opacity="0.15"/>
</svg>